<svg xmlns="http://www.w3.org/2000/svg" width="100" height="70" fill="none"><path fill="#000" fill-opacity=".25" fill-rule="evenodd" d="M49.84 16.274A850 850 0 0 1 60.993 6.49c1.936-1.662 3.699-3.147 5.003-4.195A34 34 0 0 1 67.59 1.07c.196-.137.371-.251.511-.326.067-.036.152-.077.24-.102a.7.7 0 0 1 .202-.027.6.6 0 0 1 .266.071l.097.07L95.5 24.723l.01.009.01.01c1.696 1.714 3.718 4.802 4.31 8.537.593 3.756-.264 8.149-4.303 12.414-7.9 8.342-20.725 19.482-26.146 24.007l-.334.278-19.2-16.271L31.612 70 3.165 43.883l-.022-.027c-2.358-2.938-5.706-10.534.008-17.279C8.697 20.03 24.229 6.316 31.28.293L31.623 0zm-9.609 23.948a301 301 0 0 1-3.582-3.716c-1.318-1.383-1.71-2.563-1.713-3.447-.003-.893.388-1.523.706-1.815l.006-.006.006-.006 6.403-6.331.324-.32-11.022-10.119-.349.31C26.087 19.14 15.64 28.43 13.272 30.604c-1.305 1.198-1.587 2.553-1.395 3.744.19 1.168.83 2.171 1.37 2.749l.012.013 18.586 17.065 27.579-25.322c5.433 5.16 4.813 8.846 4.04 9.941l-5.697 6.182 10.68 9.34.349.303.34-.311a730 730 0 0 0 10.042-9.402c3.538-3.384 6.731-6.54 7.743-7.84 1.101-1.416 1.047-2.9.554-4.138-.48-1.208-1.385-2.208-2.085-2.776L68.295 14.457z" clip-rule="evenodd"/></svg>