<svg xmlns="http://www.w3.org/2000/svg" width="324" height="64" viewbox="0 0 324 64" fill="none"><path fill="#005742" fill-rule="evenodd" d="M252.425 16.319c3.656-3.795 8.945-5.83 15.481-5.83s11.749 2.065 15.412 5.83c3.663 3.765 5.647 9.191 5.647 15.87 0 6.68-2.03 12.145-5.647 15.94-3.617 3.795-8.907 5.867-15.412 5.867-6.506 0-11.787-2.102-15.481-5.905-3.693-3.803-5.692-9.192-5.692-15.94 0-6.747 2.037-12.106 5.692-15.87v.038Zm7.493 26.05a9.765 9.765 0 0 0 8.018 3.696 9.65 9.65 0 0 0 7.942-3.697c1.923-2.398 2.956-5.867 2.956-10.178 0-4.311-1.064-7.788-2.956-10.171a9.777 9.777 0 0 0-7.98-3.613 9.946 9.946 0 0 0-8.048 3.613c-1.885 2.368-2.918 5.837-2.918 10.156 0 4.318 1.033 7.78 2.956 10.178l.03.015ZM112.788 10.748c.691.09 1.36.205 2.029.334 2.052.41 4.088 1.077 6.08 1.654-.593 1.723-1.095 4.038-2.349 5.351a4.55 4.55 0 0 1-1.011.812 4.121 4.121 0 0 1-2.401.479l-.517-.145a18.317 18.317 0 0 0-3.184-.63 32.157 32.157 0 0 0-3.952-.182 10.37 10.37 0 0 0-8.291 3.598c-1.953 2.368-2.995 5.837-2.995 10.156 0 4.318 1.042 7.855 2.995 10.216a10.271 10.271 0 0 0 8.314 3.658 32.147 32.147 0 0 0 3.473-.151 26.727 26.727 0 0 0 3.04-.593l.851-.258a3.927 3.927 0 0 1 2.584.334c2.09 1.093 2.88 3.871 3.617 5.936a40.879 40.879 0 0 1-8.458 2.277c-1.688.25-3.394.361-5.1.334-6.611 0-12.007-2.065-15.7-5.867-3.694-3.803-5.8-9.192-5.8-15.94 0-6.747 2.068-12.106 5.8-15.87 3.73-3.765 9.119-5.83 15.7-5.83 1.777-.02 3.554.066 5.32.258l-.045.069ZM217.656 53.381a50.737 50.737 0 0 1-5.912-1.411c-1.627-.448-3.291-.888-4.917-1.404.516-1.26 1.003-2.589 1.558-3.841.24-.517.552-.997.927-1.427a3.992 3.992 0 0 1 4.56-.972l1.048.296c1.368.357 2.653.653 3.907.88 1.203.23 2.418.387 3.64.471.813.061 1.619.092 2.432.092 1.459.05 2.917-.137 4.317-.555a3.883 3.883 0 0 0 2.887-3.878c0-1.177-.851-2.14-2.036-2.915a19.466 19.466 0 0 0-4.347-1.958l-5.655-1.95c-4.658-1.519-7.759-3.037-9.682-4.987-1.922-1.951-2.698-4.243-2.698-7.34a10.333 10.333 0 0 1 4.56-8.858c2.881-2.026 7.129-3.134 12.418-3.134a38.328 38.328 0 0 1 5.426.364 56.488 56.488 0 0 1 8.14 2.057c.669.205 1.345.417 2.037.645-.517 1.252-1.034 2.831-1.627 3.977a4.789 4.789 0 0 1-1.847 2.133 3.87 3.87 0 0 1-2.621.448c-.335-.076-.996-.296-1.33-.372-1.254-.334-2.546-.66-3.914-.888a22.794 22.794 0 0 0-4.249-.402 9.497 9.497 0 0 0-4.955 1.146 3.408 3.408 0 0 0-1.846 2.914 3.287 3.287 0 0 0 1.763 2.809 18.265 18.265 0 0 0 4.506 1.92l5.685 1.882c4.697 1.587 7.835 3.135 9.758 5.093 1.923 1.959 2.736 4.281 2.736 7.416 0 4.433-1.778 7.31-4.438 9.192-3.473 2.474-8.421 3.134-12.92 3.134-1.079 0-2.143 0-3.222-.09a38.192 38.192 0 0 1-4.089-.487ZM164.375 53.002c-.76-1.29-1.999-3.795-3.04-5.981s-1.885-4.13-1.961-4.281a30.533 30.533 0 0 0-2.364-3.985 11.646 11.646 0 0 0-2.165-2.36c-.477-.388-1-.715-1.558-.972a4.482 4.482 0 0 0-.449-.174l1.566-.676a13.035 13.035 0 0 0 5.016-4.205 11.014 11.014 0 0 0 2.074-6.49c0-4.022-1.52-7.203-4.286-9.373-2.766-2.171-6.84-3.325-12.046-3.363-5.205-.038-10.639 0-15.784 0a3.803 3.803 0 0 0-2.675 1.01 3.615 3.615 0 0 0-1.125 2.565v38.58h10.085V18.9h9.241a6.897 6.897 0 0 1 4.651 1.602 5.308 5.308 0 0 1 1.778 4.137 4.956 4.956 0 0 1-1.922 4.28c-1.292.919-3.291 1.405-5.951 1.405h-.577a3.907 3.907 0 0 0-1.52.258 3.041 3.041 0 0 0-1.148.812 5.792 5.792 0 0 0-1.292 3.036 16.227 16.227 0 0 0-.114 3.468v.183h.175c3.617.106 5.912.994 7.6 2.428 1.687 1.435 2.751 3.522 3.898 5.92l1.475 3.287h.045a7.6 7.6 0 0 0 2.554 2.915 5.574 5.574 0 0 0 2.918.668h7.098l-.197-.296ZM323.551 45.548h-20.025V11.56a.41.41 0 0 0-.274-.387.63.63 0 0 0-.205 0h-9.234a.427.427 0 0 0-.327.212.417.417 0 0 0-.045.19v41.746h26.857a3.682 3.682 0 0 0 2.556-1.006 3.67 3.67 0 0 0 1.145-2.493v-3.795a.332.332 0 0 0-.045-.19l-.061-.099a.41.41 0 0 0-.175-.114.489.489 0 0 0-.167-.076ZM202.054 45.548H179.08v-10.08h14.037a4.566 4.566 0 0 0 2.28-.758 2.427 2.427 0 0 0 1.147-2.14v-4.327a.638.638 0 0 0 0-.175.378.378 0 0 0-.19-.258.479.479 0 0 0-.289-.053h-16.947V18.9h18.103a4.44 4.44 0 0 0 2.401-.812 3.65 3.65 0 0 0 1.262-1.95c.342-1.116 1.52-4.987 1.52-4.987h-29.966a3.672 3.672 0 0 0-3.443 3.613l-.038 34.914a3.714 3.714 0 0 0 3.04 3.567c.329.053.663.07.996.054h25.299a3.698 3.698 0 0 0 3.732-3.127c.027-.173.04-.349.038-.524 0-1.146-.008-4.099-.008-4.099ZM47.605 33.882l-7.547 7.47-4.56-4.555 1.771-1.776c2.918-3.21-.836-6.027-.866-6.072L24.03 41.35l-7.539-7.469a2.64 2.64 0 0 1 0-3.75l7.54-7.468 4.56 4.516-1.78 1.776c-2.917 3.219.837 6.027.875 6.073l12.372-12.365 7.547 7.469a2.643 2.643 0 0 1 .578 2.89c-.134.322-.33.614-.578.86Zm3.488-7.203L40.491 16.167a.616.616 0 0 0-.866 0l-7.6 7.59-7.6-7.59a.616.616 0 0 0-.873 0L13.003 26.679a7.517 7.517 0 0 0 0 10.627l10.564 10.52a.616.616 0 0 0 .874 0l7.6-7.59 7.6 7.59a.67.67 0 0 0 .432.174.607.607 0 0 0 .434-.175l10.586-10.497a7.453 7.453 0 0 0 1.65-8.193 7.453 7.453 0 0 0-1.65-2.433v-.023Z" clip-rule="evenodd"/><path fill="#EE8600" fill-rule="evenodd" d="M32.048 64a32.07 32.07 0 0 1-17.803-5.39A32.009 32.009 0 0 1 2.44 44.25 31.963 31.963 0 0 1 .615 25.758a31.987 31.987 0 0 1 8.77-16.386A32.053 32.053 0 0 1 25.791.615a32.078 32.078 0 0 1 18.513 1.822 32.032 32.032 0 0 1 14.38 11.79 31.97 31.97 0 0 1 5.396 17.78 32.01 32.01 0 0 1-9.393 22.611A32.091 32.091 0 0 1 32.048 64Zm0-58.444a26.493 26.493 0 0 0-14.702 4.458A26.443 26.443 0 0 0 7.6 21.877a26.405 26.405 0 0 0 5.736 28.806 26.501 26.501 0 0 0 28.84 5.737 26.463 26.463 0 0 0 11.882-9.73 26.412 26.412 0 0 0 4.468-14.682 26.427 26.427 0 0 0-7.758-18.694 26.494 26.494 0 0 0-18.72-7.743v-.015Z" clip-rule="evenodd"/></svg>